<svg xmlns="http://www.w3.org/2000/svg" xmlns:xlink="http://www.w3.org/1999/xlink" style="margin:auto;background:0 0;display:block;shape-rendering:auto" width="64" height="64" preserveAspectRatio="xMidYMid" viewBox="0 0 100 100"><g transform="rotate(0 50 50)"><rect width="6" height="24" x="47" y="2" fill="#bdbdbd" rx="3" ry="3.6"><animate attributeName="opacity" begin="-0.5729166666666666s" dur="0.625s" keyTimes="0;1" repeatCount="indefinite" values="1;0"/></rect></g><g transform="rotate(30 50 50)"><rect width="6" height="24" x="47" y="2" fill="#bdbdbd" rx="3" ry="3.6"><animate attributeName="opacity" begin="-0.5208333333333333s" dur="0.625s" keyTimes="0;1" repeatCount="indefinite" values="1;0"/></rect></g><g transform="rotate(60 50 50)"><rect width="6" height="24" x="47" y="2" fill="#bdbdbd" rx="3" ry="3.6"><animate attributeName="opacity" begin="-0.46874999999999994s" dur="0.625s" keyTimes="0;1" repeatCount="indefinite" values="1;0"/></rect></g><g transform="rotate(90 50 50)"><rect width="6" height="24" x="47" y="2" fill="#bdbdbd" rx="3" ry="3.6"><animate attributeName="opacity" begin="-0.41666666666666663s" dur="0.625s" keyTimes="0;1" repeatCount="indefinite" values="1;0"/></rect></g><g transform="rotate(120 50 50)"><rect width="6" height="24" x="47" y="2" fill="#bdbdbd" rx="3" ry="3.6"><animate attributeName="opacity" begin="-0.36458333333333326s" dur="0.625s" keyTimes="0;1" repeatCount="indefinite" values="1;0"/></rect></g><g transform="rotate(150 50 50)"><rect width="6" height="24" x="47" y="2" fill="#bdbdbd" rx="3" ry="3.6"><animate attributeName="opacity" begin="-0.31249999999999994s" dur="0.625s" keyTimes="0;1" repeatCount="indefinite" values="1;0"/></rect></g><g transform="rotate(180 50 50)"><rect width="6" height="24" x="47" y="2" fill="#bdbdbd" rx="3" ry="3.6"><animate attributeName="opacity" begin="-0.26041666666666663s" dur="0.625s" keyTimes="0;1" repeatCount="indefinite" values="1;0"/></rect></g><g transform="rotate(210 50 50)"><rect width="6" height="24" x="47" y="2" fill="#bdbdbd" rx="3" ry="3.6"><animate attributeName="opacity" begin="-0.20833333333333331s" dur="0.625s" keyTimes="0;1" repeatCount="indefinite" values="1;0"/></rect></g><g transform="rotate(240 50 50)"><rect width="6" height="24" x="47" y="2" fill="#bdbdbd" rx="3" ry="3.6"><animate attributeName="opacity" begin="-0.15624999999999997s" dur="0.625s" keyTimes="0;1" repeatCount="indefinite" values="1;0"/></rect></g><g transform="rotate(270 50 50)"><rect width="6" height="24" x="47" y="2" fill="#bdbdbd" rx="3" ry="3.6"><animate attributeName="opacity" begin="-0.10416666666666666s" dur="0.625s" keyTimes="0;1" repeatCount="indefinite" values="1;0"/></rect></g><g transform="rotate(300 50 50)"><rect width="6" height="24" x="47" y="2" fill="#bdbdbd" rx="3" ry="3.6"><animate attributeName="opacity" begin="-0.05208333333333333s" dur="0.625s" keyTimes="0;1" repeatCount="indefinite" values="1;0"/></rect></g><g transform="rotate(330 50 50)"><rect width="6" height="24" x="47" y="2" fill="#bdbdbd" rx="3" ry="3.6"><animate attributeName="opacity" begin="0s" dur="0.625s" keyTimes="0;1" repeatCount="indefinite" values="1;0"/></rect></g></svg>