<?xml version="1.0" standalone="no"?>
<!DOCTYPE svg PUBLIC "-//W3C//DTD SVG 20010904//EN"
 "http://www.w3.org/TR/2001/REC-SVG-20010904/DTD/svg10.dtd">
<svg version="1.0" xmlns="http://www.w3.org/2000/svg"
 width="300.000000pt" height="300.000000pt" viewBox="0 0 300.000000 300.000000"
 preserveAspectRatio="xMidYMid meet">
<metadata>
Created by potrace 1.11, written by Peter Selinger 2001-2013
</metadata>
<g transform="translate(0.000000,300.000000) scale(0.100000,-0.100000)"
fill="#000000" stroke="none">
<path d="M1903 2878 c-6 -7 -20 -42 -32 -78 -12 -36 -44 -98 -71 -138 -29 -43
-53 -90 -56 -113 -4 -22 -11 -42 -16 -45 -5 -3 -31 0 -58 6 l-50 12 0 61 c1
34 7 91 15 127 24 111 15 176 -20 139 -17 -19 -106 -236 -112 -275 -5 -31 -6
-32 -72 -37 -36 -2 -109 -17 -161 -32 -166 -47 -259 -33 -381 60 -82 61 -115
106 -132 175 -13 55 -23 63 -33 25 -4 -16 -12 -24 -23 -23 -12 2 -15 -4 -13
-23 2 -19 -4 -31 -24 -44 -26 -17 -27 -18 -8 -32 15 -11 16 -17 7 -32 -10 -16
-9 -20 4 -25 14 -6 14 -8 -2 -20 -13 -9 -15 -15 -6 -20 6 -4 9 -12 5 -17 -3
-6 3 -13 15 -16 11 -3 23 -14 26 -24 4 -10 13 -19 22 -19 13 0 13 -3 2 -16
-10 -13 -10 -17 0 -24 8 -4 10 -13 7 -19 -4 -6 2 -26 13 -44 14 -22 17 -37 11
-47 -16 -26 -12 -43 10 -37 19 5 24 -3 21 -30 -1 -7 7 -13 18 -13 15 0 19 -5
14 -16 -3 -9 0 -20 7 -24 10 -6 7 -20 -12 -61 -40 -88 -115 -149 -183 -149
-14 0 -28 -7 -31 -15 -10 -24 16 -45 55 -45 27 0 32 -3 21 -10 -8 -5 -26 -10
-40 -10 l-25 -1 23 -18 c30 -26 28 -34 -8 -29 -24 4 -30 1 -30 -13 0 -10 7
-22 15 -26 13 -7 10 -13 -14 -31 -20 -14 -32 -35 -37 -58 -7 -39 10 -70 20
-36 7 20 46 61 46 48 0 -4 -5 -17 -11 -29 -14 -24 -21 -107 -10 -107 4 0 11 4
17 10 6 6 10 3 11 -10 1 -11 -11 -28 -28 -40 -37 -27 -37 -40 2 -40 27 0 30
-2 19 -15 -10 -12 -10 -15 1 -15 7 0 -3 -17 -23 -37 -37 -38 -60 -93 -40 -93
6 0 18 10 28 23 16 22 16 22 10 -10 -6 -38 3 -42 30 -12 l19 21 6 -28 c3 -17
-1 -38 -9 -51 -7 -12 -12 -39 -10 -60 l3 -38 15 29 14 28 8 -28 c6 -24 3 -32
-15 -46 -20 -15 -20 -17 -4 -23 9 -4 24 -5 32 -1 12 4 13 -3 8 -40 -5 -38 -2
-48 17 -69 33 -35 39 -31 34 18 l-4 42 12 -32 c7 -18 20 -38 29 -45 9 -7 22
-22 28 -33 10 -20 11 -20 17 2 5 18 8 20 19 9 9 -9 12 -27 8 -57 l-6 -44 22
19 c21 19 21 19 21 -14 0 -28 2 -31 15 -20 8 7 15 19 15 26 0 8 5 14 12 14 6
0 19 7 29 16 16 15 17 14 12 -5 -6 -24 7 -27 38 -8 17 10 22 9 31 -7 10 -19
12 -18 34 10 23 28 24 28 24 6 0 -15 4 -21 12 -16 8 5 9 0 4 -17 -3 -13 -9
-44 -12 -69 -5 -37 -2 -49 16 -70 l21 -25 -5 40 -5 40 16 -35 c9 -19 17 -56
17 -82 1 -27 4 -48 7 -48 4 0 3 -19 -1 -42 -6 -30 -4 -51 6 -70 17 -32 34 -37
34 -10 0 11 11 24 23 29 22 10 24 9 19 -15 -5 -24 -3 -26 11 -13 9 7 19 28 23
47 3 19 10 31 15 28 5 -3 9 0 9 6 0 6 5 8 11 4 7 -4 9 -22 6 -45 -6 -43 0 -54
20 -37 12 10 13 7 8 -18 l-6 -29 23 27 24 28 -4 -68 c-3 -58 -1 -71 18 -92
l21 -25 -4 43 c-3 24 -1 40 4 36 5 -3 9 -15 9 -28 0 -12 9 -50 21 -83 11 -34
26 -96 32 -139 13 -85 37 -114 37 -46 0 22 9 86 20 142 11 56 21 118 21 138
l2 37 6 -38 c3 -21 10 -39 15 -40 17 -4 26 57 16 112 -11 61 -12 100 -1 62 8
-28 31 -41 31 -17 0 9 4 16 9 16 5 0 12 17 16 37 4 21 9 41 12 46 8 14 33 -14
33 -38 0 -52 29 -78 31 -27 0 15 3 21 6 15 2 -7 11 -13 18 -13 8 0 18 -7 23
-17 16 -28 35 22 28 73 -5 36 -3 42 10 37 12 -4 14 0 8 21 -9 38 4 99 20 93 8
-3 18 -1 23 4 6 6 25 18 44 27 47 24 124 165 136 249 3 26 12 57 19 68 12 18
44 136 44 160 -1 6 -7 1 -15 -9 -19 -25 -19 -9 -1 35 17 43 29 119 18 119 -5
0 -16 -17 -26 -37 -15 -32 -19 -35 -27 -20 -10 17 13 58 93 165 l32 42 -12 83
c-17 117 -15 140 14 192 42 76 55 125 65 240 19 227 -25 341 -215 558 -59 67
-86 106 -86 123 0 38 -28 83 -51 84 -4 0 -11 -6 -16 -12z m50 -75 l14 -52 -74
-73 c-41 -40 -87 -93 -104 -117 -17 -26 -29 -37 -29 -27 0 28 25 80 63 129 19
25 43 67 53 94 49 134 54 137 77 46z m-338 -99 c-29 -158 -7 -245 64 -252 l32
-3 -50 -58 c-48 -56 -100 -149 -101 -181 0 -8 -15 17 -32 55 -30 68 -31 72
-18 125 7 30 13 91 14 135 1 58 7 92 22 125 11 25 34 78 50 118 36 90 42 68
19 -64z m459 -70 l28 -36 -38 -31 c-21 -18 -64 -55 -96 -83 -31 -28 -83 -70
-115 -95 -68 -52 -77 -61 -144 -158 -58 -83 -89 -168 -89 -244 1 -47 2 -50 15
-34 7 10 19 42 26 70 18 80 46 131 100 187 52 52 227 174 314 217 27 14 63 34
78 45 27 20 29 20 42 2 17 -23 26 -54 15 -54 -4 0 -35 -25 -69 -55 -39 -35
-103 -76 -171 -110 -71 -35 -128 -73 -166 -109 -53 -48 -105 -116 -89 -116 3
0 27 17 54 38 71 57 195 117 291 143 47 12 109 32 138 45 43 19 54 21 58 9 3
-7 1 -67 -4 -132 -6 -86 -15 -132 -32 -170 -25 -59 -54 -73 -43 -23 8 41 -1
38 -31 -14 -52 -88 -144 -147 -262 -166 -154 -26 -200 -55 -228 -147 -10 -32
7 -29 67 9 l49 31 72 -36 c39 -20 90 -39 112 -43 47 -7 144 17 163 40 10 12 3
13 -48 9 -57 -5 -62 -4 -112 32 l-51 38 46 18 c85 34 149 85 193 155 10 16 12
11 12 -35 1 -30 6 -92 13 -138 l12 -82 -46 -59 c-25 -33 -51 -69 -57 -81 -7
-11 -18 -21 -26 -21 -22 0 -30 -22 -11 -32 9 -5 16 -14 16 -20 0 -6 -6 -5 -16
3 -14 11 -18 10 -30 -6 -8 -10 -14 -22 -14 -27 0 -4 -7 -5 -15 -1 -9 3 -24 -2
-34 -11 -17 -15 -19 -15 -25 -1 -4 11 -15 15 -31 13 -15 -2 -30 4 -40 17 -10
12 -15 14 -12 5 19 -65 19 -66 -3 -32 -24 39 -39 38 -60 -6 -15 -31 -30 -42
-30 -22 0 14 -53 13 -67 -1 -8 -8 -19 -4 -40 15 -28 27 -44 29 -51 8 -2 -7 2
-10 11 -6 18 6 67 -50 67 -77 0 -30 -37 -61 -59 -50 -24 13 -45 64 -38 97 2
14 0 43 -5 65 -9 32 -7 47 10 88 17 38 19 55 12 81 -11 38 -29 53 -46 39 -9
-7 -21 9 -44 58 -34 71 -40 134 -20 187 14 37 13 66 -4 85 -21 25 -44 104 -39
137 3 17 -2 44 -9 60 -15 29 -13 114 1 114 4 0 15 -16 24 -35 21 -44 40 -52
73 -30 25 16 26 16 21 -2 -11 -36 -19 -203 -12 -242 10 -62 25 -49 25 23 0 90
18 210 41 270 17 48 100 157 187 250 21 21 78 69 127 106 50 36 96 74 104 83
19 23 22 22 55 -19z m-862 -479 c6 -22 15 -45 19 -51 5 -5 5 -21 2 -34 -5 -19
-3 -22 10 -17 12 5 17 1 17 -13 0 -24 5 -24 -78 -4 -83 20 -95 31 -78 62 12
22 14 23 29 8 15 -15 17 -15 28 5 6 12 9 37 6 55 -5 28 -3 32 14 31 14 -1 23
-13 31 -42z m25 -188 c12 -11 12 -16 1 -24 -19 -16 -82 7 -86 31 -4 17 0 18
34 13 21 -4 44 -12 51 -20z m-10 -82 c69 -19 94 -38 75 -57 -7 -7 -12 -20 -12
-31 0 -16 5 -14 37 12 21 17 44 31 53 31 8 0 2 -8 -15 -19 -16 -10 -38 -32
-48 -50 -16 -27 -16 -31 -3 -31 9 0 16 5 16 10 0 13 60 50 80 49 8 0 1 -7 -15
-14 -39 -17 -62 -43 -71 -80 l-7 -30 41 38 c23 20 51 37 62 37 33 0 22 -15
-22 -30 -60 -21 -71 -55 -39 -116 13 -25 39 -58 57 -74 26 -22 29 -30 18 -34
-49 -19 -128 5 -162 49 -37 47 -39 104 -5 191 3 8 0 14 -6 14 -24 0 -54 -90
-49 -146 4 -47 2 -54 -14 -54 -24 0 -23 -12 7 -56 19 -28 25 -49 25 -93 l0
-56 -24 50 c-29 61 -93 128 -115 122 -17 -4 -74 24 -72 36 0 4 1 14 1 22 0 8
6 15 13 15 9 0 14 14 14 43 0 23 3 51 8 61 7 15 5 18 -7 13 -23 -8 -34 24 -14
39 23 16 20 21 -16 29 l-33 7 25 11 c36 16 36 16 14 32 -14 10 -15 14 -4 15
11 0 11 3 2 12 -9 9 -6 17 15 35 23 18 25 24 14 32 -12 8 -12 12 -2 25 11 13
19 12 64 -14 29 -15 80 -36 114 -45z m178 5 c3 -5 -1 -10 -9 -10 -9 0 -16 5
-16 10 0 6 4 10 9 10 6 0 13 -4 16 -10z m-67 -484 c4 -19 -23 -66 -38 -66 -13
0 -13 32 0 65 11 29 33 29 38 1z m-643 -6 c-3 -5 -11 -10 -16 -10 -6 0 -7 5
-4 10 3 6 11 10 16 10 6 0 7 -4 4 -10z m705 -10 c0 -11 -4 -20 -10 -20 -5 0
-10 9 -10 20 0 11 5 20 10 20 6 0 10 -9 10 -20z m649 -57 c1 -26 -11 -30 -28
-9 -9 10 -9 21 0 42 10 27 12 28 19 9 5 -11 9 -30 9 -42z m-215 -1 c18 -39 12
-81 -14 -97 -15 -9 -50 23 -50 46 0 21 31 89 40 89 4 0 15 -17 24 -38z m84 -2
c11 -30 0 -94 -18 -105 -25 -16 -40 79 -18 115 17 27 24 25 36 -10z m73 13 c0
-5 2 -27 5 -50 4 -47 0 -51 -28 -26 -18 17 -23 39 -12 67 6 16 33 23 35 9z
m97 -130 c-4 -43 -25 -55 -34 -19 -8 33 1 56 21 56 13 0 15 -9 13 -37z m-592
-31 c29 2 38 -2 54 -27 18 -28 18 -30 2 -36 -9 -3 -46 -4 -82 -1 -70 5 -90 18
-90 59 0 21 2 22 21 12 17 -9 25 -8 38 5 15 16 16 16 19 1 3 -12 13 -16 38
-13z m552 -86 c2 -9 1 -24 -3 -33 -10 -27 -39 8 -30 36 8 25 28 23 33 -3z
m-222 -20 c7 -29 -1 -46 -21 -46 -21 0 -26 16 -14 44 15 33 27 33 35 2z m-455
-133 c-6 -11 -11 -1 -21 34 -22 84 -21 89 5 34 16 -34 22 -58 16 -68z m649 81
c0 -14 -6 -24 -14 -24 -21 0 -25 11 -15 38 11 28 29 20 29 -14z m-970 4 c0
-13 -5 -30 -10 -38 -7 -11 -10 -5 -10 23 0 20 5 37 10 37 6 0 10 -10 10 -22z
m920 -7 c0 -33 -16 -49 -33 -32 -7 7 -7 18 1 36 16 34 32 32 32 -4z m-212 -13
c24 -24 2 -108 -29 -108 -22 0 -31 46 -15 83 16 39 25 44 44 25z m148 -44 c-5
-17 -12 -24 -24 -22 -23 4 -27 42 -6 63 16 16 18 16 27 0 5 -9 6 -28 3 -41z
m-232 30 c3 -9 6 -24 6 -35 0 -53 55 -102 76 -68 3 6 19 9 34 6 16 -4 36 0 49
9 12 9 29 13 37 10 9 -3 26 5 40 19 29 29 39 32 30 9 -4 -9 -1 -22 5 -30 20
-24 -7 -49 -79 -72 -70 -23 -101 -46 -150 -111 -13 -17 -30 -31 -37 -31 -20 0
-35 33 -35 78 0 22 -7 57 -16 77 -12 30 -13 44 -5 62 6 13 11 36 11 52 0 41
22 57 34 25z m-299 -130 c28 -11 70 -16 137 -17 74 0 98 -3 98 -13 0 -18 -59
-27 -143 -22 -88 6 -125 22 -151 68 -20 35 -20 35 0 18 11 -10 38 -25 59 -34z"/>
<path d="M2078 2108 c-32 -11 -58 -23 -58 -28 0 -4 26 -2 58 6 75 18 72 19 72
-18 0 -34 17 -28 20 7 7 62 -2 65 -92 33z"/>
<path d="M2080 2065 c-19 -7 -80 -15 -135 -19 -55 -4 -116 -12 -135 -18 -59
-19 -120 -63 -151 -109 -50 -76 -49 -76 114 -71 78 2 156 8 174 13 35 11 120
83 154 130 11 16 24 43 29 59 10 34 5 35 -50 15z m-170 -110 c0 -21 -32 -35
-53 -24 -37 21 -2 68 35 48 10 -5 18 -16 18 -24z"/>
<path d="M1870 1960 c0 -5 5 -10 11 -10 5 0 7 5 4 10 -3 6 -8 10 -11 10 -2 0
-4 -4 -4 -10z"/>
<path d="M1623 1913 c-44 -64 -70 -172 -57 -240 7 -35 9 -31 20 49 7 49 24
116 38 150 28 69 28 83 -1 41z"/>
</g>
</svg>
